<?xml version="1.0" encoding="utf-8"?>
<!-- Generator: Adobe Illustrator 24.2.0, SVG Export Plug-In . SVG Version: 6.00 Build 0)  -->
<svg version="1.1" id="Layer_1" xmlns="http://www.w3.org/2000/svg" xmlns:xlink="http://www.w3.org/1999/xlink" x="0px" y="0px"
	 viewBox="0 0 648 576" enable-background="new 0 0 648 576" xml:space="preserve">
<g>
	<g>
		<path fill="#06428B" d="M-2722.054,154.256c29.83-30.43,60.23-60.32,90.29-90.54c30.1,30.19,60.38,60.21,90.36,90.52
			c-21.07-0.04-42.16,0.14-63.23-0.08c-9.37-8.54-18.02-17.94-27.14-26.79c-8.38,8.36-16.77,16.7-25.08,25.11
			c-0.88,0.73-1.67,1.94-2.97,1.76C-2680.564,154.276-2701.304,154.226-2722.054,154.256z"/>
		<path fill="#06428B" d="M-2823.544,255.556c30.14-30.25,60.37-60.4,90.55-90.6c30.17,30.17,60.33,60.35,90.51,90.52
			c-21.11,0.01-42.22,0.14-63.32-0.03c-9.35-8.61-18.06-17.99-27.18-26.88c-8.97,8.99-17.97,17.96-26.94,26.95
			C-2781.134,255.536-2802.344,255.446-2823.544,255.556z"/>
		<path fill="#06428B" d="M-2621.104,255.546c30.12-30.26,60.36-60.4,90.53-90.62c30.18,30.2,60.39,60.38,90.55,90.61
			c-21.2-0.03-42.39-0.04-63.59,0c-8.97-9-17.97-17.97-26.96-26.97c-9.1,8.89-17.81,18.23-27.13,26.85
			C-2578.834,255.676-2599.974,255.386-2621.104,255.546z"/>
		<path fill="#06428B" d="M-2990.054,333.266c7.36-1.21,14.91-0.26,22.35-0.55c1.65-0.39,3.14,0.97,2.78,2.66
			c0.05,13.54-0.01,27.08,0.02,40.61c13.38,0.03,26.76,0,40.14,0.02c0.03-13.52-0.04-27.04,0.02-40.56
			c-0.22-1.27,0.58-2.8,2.02-2.69c7-0.09,14.01-0.06,21.01-0.01c1.56-0.13,2.68,1.17,2.3,2.72c-0.03,36.01,0.16,72.03-0.09,108.04
			c-0.34,0.27-1.01,0.83-1.34,1.11c-7.54,0.17-15.11,0.21-22.64-0.02c-0.29-0.31-0.88-0.92-1.17-1.23
			c-0.27-14.04,0-28.09-0.12-42.13c-13.38,0-26.76-0.01-40.13,0.01c-0.01,13.46-0.01,26.92,0.01,40.39c0.07,1.12-0.2,3.19-1.76,3.03
			c-7.04,0.12-14.1,0.06-21.15,0.04c-1.74,0.26-2.62-1.65-2.3-3.11C-2990.054,405.486-2990.154,369.376-2990.054,333.266z"/>
		<g>
			<path fill="#06428B" d="M-2842.224,333.196c11.23-1.49,22.92,0.39,33,5.63c13.73,6.98,24.35,19.86,28.45,34.73
				c4.1,14.42,2.09,30.48-5.56,43.39c-7.57,13.07-20.64,22.81-35.35,26.26c-14.62,3.53-30.64,0.86-43.26-7.36
				c-12.65-8.11-21.85-21.46-24.69-36.25c-2.91-14.27,0.13-29.61,8.2-41.72C-2872.694,344.546-2858.054,335.246-2842.224,333.196z
				 M-2843.324,359.216c-11.4,3.21-20.44,13.5-21.94,25.28c-2.24,14.07,6.84,28.69,20.3,33.19c12.52,4.67,27.65-0.14,35.24-11.12
				c7.07-9.57,7.63-23.33,1.46-33.48C-2815.054,361.226-2830.234,355.156-2843.324,359.216z"/>
		</g>
		<path fill="#06428B" d="M-2791.774,332.716c3.64,0.41,7.9-0.91,11.17,0.74c4.44,8.35,8.51,16.93,12.6,25.47
			c-0.2,0.47-0.6,1.41-0.8,1.88c-3.63,0.25-7.32,0.44-10.91-0.15c-3.95-6.98-7.09-14.39-10.78-21.51
			C-2791.364,337.096-2793.334,334.936-2791.774,332.716z"/>
		<path fill="#06428B" d="M-2734.544,332.616c0.65-0.05,1.96-0.16,2.61-0.21c17.78,36.3,35.65,72.56,53.46,108.85
			c0.93,1.15,0.3,2.36-0.27,3.51c-7.68-0.22-15.38,0.22-23.04-0.21c-5.01-8.58-8.9-17.81-13.46-26.64
			c-5.99-12.14-11.96-24.28-17.93-36.42c-9.78,20.05-19.73,40.02-29.51,60.08c-0.57,1.05-1.06,2.19-1.96,3.02
			c-6.69,0.32-13.4,0.01-20.1,0.15c-1.63,0.2-3.13-0.25-4.15-1.57C-2770.854,406.286-2752.514,369.546-2734.544,332.616z"/>
		<g>
			<path fill="#06428B" d="M-2647.754,335.446c-0.49-1.82,1.21-3.09,2.9-2.74c15.72,0.05,31.45-0.04,47.17,0.05
				c14.2,0.28,27.58,9.63,33.04,22.69c5.76,13.18,3.02,29.56-6.82,40.08c-6.67,7.39-16.36,11.94-26.32,12.22
				c-8.37,0.13-16.74,0.01-25.1,0.05c-0.03,10.91-0.04,21.83,0.01,32.74c0.1,1.45-0.27,2.86-0.81,4.21
				c-7.42-0.11-14.85,0.1-22.26-0.08c-1.59,0.1-1.98-1.93-1.84-3.12C-2647.744,406.176-2647.794,370.816-2647.754,335.446z
				 M-2622.914,357.566c0.01,8.41,0.01,16.81,0,25.22c8.08-0.03,16.15,0.09,24.23-0.04c5.75-0.13,10.84-4.77,11.74-10.4
				c1.42-7.1-4.51-14.54-11.74-14.74C-2606.754,357.466-2614.834,357.586-2622.914,357.566z"/>
		</g>
		<path fill="#06428B" d="M-2555.494,332.916c7.23-0.21,14.49-0.08,21.73-0.06c1.48-0.14,2.24,1.3,2.02,2.63
			c0.09,13.55-0.02,27.11,0.04,40.67c13.43-0.03,26.86,0.01,40.29-0.02c0.01-13.58-0.05-27.15,0.02-40.72
			c-0.36-1.62,0.98-2.88,2.57-2.56c6.94,0,13.91-0.18,20.85,0.08c1.99-0.04,1.77,2.22,1.84,3.61c-0.03,34.99-0.02,69.98,0,104.98
			c0.18,1.3-0.51,2.4-1.22,3.42c-7.84-0.21-15.69,0.03-23.53-0.14c-0.33-1.4-0.61-2.83-0.57-4.26c0.05-13.03,0.03-26.07,0.02-39.09
			c-13.42-0.01-26.84-0.01-40.26,0c-0.04,13.02-0.04,26.05,0,39.08c0.1,1.51-0.26,2.99-0.81,4.39c-7.72-0.22-15.45,0.14-23.16-0.16
			c-0.27-0.31-0.81-0.91-1.08-1.22c-0.23-28.02-0.03-56.05-0.1-84.07c0.19-8.58-0.36-17.2,0.27-25.74
			C-2556.304,333.536-2555.764,333.126-2555.494,332.916z"/>
		<path fill="#06428B" d="M-2423.514,332.926c3.2-0.27,6.42-0.05,9.63-0.11c0.32,0.47,0.96,1.43,1.28,1.9
			c-3.76,7.85-7.7,15.62-11.46,23.47c-0.7,1.07-1.09,2.97-2.7,2.9c-3.19,0.19-6.38,0.04-9.55,0.01c-0.28-0.47-0.83-1.42-1.11-1.89
			c3.87-7.92,7.78-15.81,11.63-23.74C-2425.224,334.516-2424.834,333.066-2423.514,332.926z"/>
		<path fill="#06428B" d="M-2402.024,332.636c1,0.3,2.71-0.27,3.04,1.14c17.86,36.35,35.68,72.71,53.59,109.03
			c-0.32,0.48-0.97,1.45-1.3,1.93c-6.67-0.04-13.34-0.01-20,0.01c-1.36,0-3.14,0.06-3.69-1.48c-10.18-20.5-20.23-41.06-30.38-61.58
			c-9.99,20.3-20,40.6-29.96,60.91c-0.5,1.19-1.51,2.37-2.96,2.11c-7.09,0.09-14.19-0.06-21.28,0.05c-0.31-0.52-0.92-1.58-1.23-2.11
			C-2438.074,406.016-2419.954,369.366-2402.024,332.636z"/>
		<path fill="#06428B" d="M-2365.044,333.306c1.41-0.37,2.86-0.66,4.35-0.61c27.99,0.06,55.98,0,83.98,0.02
			c1.67-0.39,3.17,1,2.79,2.72c-0.27,7.48,0.66,15.07-0.53,22.48c-10.83,0.14-21.65-0.03-32.48,0.09
			c-0.01,28.42,0.14,56.85-0.07,85.27c-0.24,0.33-0.72,0.99-0.96,1.32c-6.94,0.31-13.91,0.03-20.85,0.14
			c-1.39,0.23-3.45-0.45-3.26-2.16c-0.07-28.2,0.01-56.41-0.03-84.61c-10.55-0.08-21.12,0.16-31.66-0.1
			c-0.31-0.31-0.93-0.92-1.24-1.23C-2365.234,348.866-2365.084,341.076-2365.044,333.306z"/>
	</g>
	<g>
		<path fill="#0098D2" d="M-2721.984,163.216c21.11-0.18,42.23-0.04,63.34-0.08c7.48,7.49,15,14.92,22.42,22.47
			c-21.2,0.08-42.39,0.02-63.57,0.03C-2707.174,178.136-2714.824,170.906-2721.984,163.216z"/>
		<path fill="#0098D2" d="M-2625.534,183.796c6.84-6.92,13.75-13.78,20.63-20.67c21.14,0.06,42.28-0.08,63.42,0.07
			c-7,7.3-14.32,14.29-21.36,21.55l-0.88-0.05c-14.99-0.44-30-0.04-45-0.18C-2614.334,184.396-2620.014,185.076-2625.534,183.796z"
			/>
		<path fill="#0098D2" d="M-2823.494,264.336c17.89-0.04,35.79-0.01,53.68-0.02c3.32,0.1,6.69-0.31,9.99,0.24
			c7.6,7.26,14.94,14.81,22.35,22.28c-21.16,0.09-42.31-0.01-63.47,0.05C-2808.494,279.396-2816.004,271.876-2823.494,264.336z"/>
		<path fill="#0098D2" d="M-2728.574,286.856c7.51-7.55,14.98-15.14,22.61-22.58c21.1,0.11,42.21-0.04,63.32,0.08
			c-7.28,7.65-14.94,14.92-22.29,22.5C-2686.144,286.886-2707.364,286.886-2728.574,286.856z"/>
		<path fill="#0098D2" d="M-2621.054,264.346c21.15-0.1,42.31,0.03,63.46-0.06c7.64,7.43,15.09,15.05,22.65,22.56
			c-21.24,0.04-42.47,0.05-63.71,0C-2606.064,279.296-2613.634,271.896-2621.054,264.346z"/>
		<path fill="#0098D2" d="M-2503.724,264.346c21.21-0.05,42.43-0.04,63.64-0.01c-7.46,7.56-15,15.05-22.52,22.55
			c-21.14-0.06-42.29,0.05-63.43-0.06C-2518.754,279.186-2511.104,271.886-2503.724,264.346z"/>
	</g>
	<g>
		<path fill="#158FBE" d="M-2627.364,185.606c0.6-0.61,1.21-1.21,1.83-1.81c5.52,1.28,11.2,0.6,16.81,0.72
			c15,0.14,30.01-0.26,45,0.18l0.98,0.77C-2584.274,185.846-2605.824,185.566-2627.364,185.606z"/>
	</g>
	<g>
		<path fill="#40A9D0" d="M-2377.194,470.836c-0.13-2.9,2.93-4.75,5.35-3.04c1.8,2.52-0.7,6.15-3.6,6.1
			c0.56-1.14,1.67-3.43,2.23-4.58C-2374.214,469.696-2376.204,470.456-2377.194,470.836z"/>
	</g>
	<g>
		<path fill="#0397CE" d="M-2885.784,471.636c1.55,0,3.33-0.73,4.73,0.17c1.5,1.58,2.61,3.47,3.81,5.3
			C-2881.084,477.256-2883.314,473.996-2885.784,471.636z"/>
		<path fill="#0397CE" d="M-2677.894,471.476c1.45-0.06,2.91-0.12,4.38-0.17c1.54,1.71,2.88,3.6,3.84,5.71
			C-2673.484,477.376-2675.434,473.676-2677.894,471.476z"/>
	</g>
	<g>
		<g>
			<path fill="#0298D2" d="M-2506.664,471.586c1.54-0.19,3.09-0.26,4.67-0.19c-2.1,2.24-4.3,4.37-6.57,6.43
				c2.27-0.54,2.75,1.64,3.48,3.04c3.28,7.72,6.57,15.45,9.91,23.15c-1.4,0.01-2.79,0.04-4.18,0.07c-0.88-2.12-1.73-4.24-2.56-6.36
				c-4.12-0.04-8.23-0.06-12.34,0.03c-0.83,2.16-1.7,4.29-2.64,6.4c-1.33-0.05-2.65-0.1-3.96-0.14c3.77-8.47,7.11-17.18,11.44-25.38
				c-0.41-0.55-0.81-1.1-1.21-1.64C-2509.374,475.146-2508.234,473.196-2506.664,471.586z M-2508.104,482.986
				c-1.66,3.79-3.23,7.62-4.75,11.47c3.18,0.01,6.36,0,9.56-0.02C-2504.904,490.616-2506.334,486.726-2508.104,482.986z"/>
		</g>
		<g>
			<path fill="#0298D2" d="M-2766.194,478.066c1.87-0.94,2.45-3.82,5.19-3.1c-0.19,1.97-1.2,3.64-2.47,5.11
				c5.46,4.63,6.69,13.35,2.5,19.2c-4.55,6.73-15.49,7.34-20.9,1.35c-6.05-6.13-4.4-17.94,3.51-21.72
				C-2774.604,476.756-2770.264,477.686-2766.194,478.066z M-2774.354,481.086c-8.7,1.81-9.95,15.36-2.19,19.21
				c6.18,3.51,14.58-1.64,14.21-8.74C-2761.554,485.106-2768.034,479.296-2774.354,481.086z"/>
		</g>
		<g>
			<path fill="#0298D2" d="M-2884.344,478.136c6.8-2.52,15.35,1.33,17.36,8.44c2.43,6.98-1.4,15.77-8.83,17.61
				c-6.75,2.15-14.89-1.61-16.87-8.57C-2895.124,488.806-2891.444,480.256-2884.344,478.136z M-2884.384,481.906
				c-7.98,3.9-6.36,18,2.7,19.28c6.69,1.6,12.77-5.13,11.48-11.64C-2870.684,482.936-2878.584,478.606-2884.384,481.906z"/>
		</g>
		<path fill="#0298D2" d="M-2402.794,478.156c0.92-0.02,2.76-0.06,3.68-0.08c0.08,8.65,0.01,17.31,0.04,25.96
			c-1.2,0.02-2.39,0.06-3.58,0.1C-2402.984,495.476-2402.724,486.816-2402.794,478.156z"/>
	</g>
	<g>
		<path fill="#1E9AC8" d="M-2382.664,471.416c1.33,0,2.68,0,4.03,0.01c1.47,1.76,2.82,3.6,4.05,5.55c-2.97,0.74-4.61-1.45-6.11-3.51
			c-0.81,1.1-1.62,2.19-2.4,3.31c-0.93,0.03-2.79,0.08-3.72,0.11C-2385.464,475.036-2384.074,473.226-2382.664,471.416z"/>
	</g>
	<g>
		<path fill="#0198D0" d="M-2905.464,478.126c1.12-0.01,2.25-0.01,3.38-0.01c0.03,8.65,0.01,17.3,0,25.96
			c-1.13-0.01-2.26-0.01-3.38-0.01c-0.01-3.96-0.01-7.91-0.01-11.87c-4.46-0.02-8.92-0.02-13.38,0.01c0.01,3.96,0,7.91-0.03,11.88
			c-1.18-0.02-2.35-0.02-3.52-0.02c0.02-8.67-0.09-17.34,0.06-26.01c0.87,0.03,2.61,0.07,3.48,0.1c0,3.55,0.01,7.11,0.02,10.68
			c4.45,0.01,8.91,0.01,13.37,0C-2905.474,485.256-2905.474,481.686-2905.464,478.126z"/>
	</g>
	<g>
		<path fill="#0297D0" d="M-2814.524,478.116c1.14-0.01,2.28,0,3.44,0.01c0.01,3.57,0.02,7.14,0.03,10.72c4.41,0,8.81-0.01,13.22,0
			c-0.03-3.61-0.06-7.21,0.22-10.79c1.17,0.02,2.35,0.05,3.54,0.09c0.03,8.63,0.02,17.27,0,25.9c-1.2,0.02-2.39,0.04-3.57,0.08
			c-0.24-3.98-0.2-7.97-0.2-11.94c-4.4,0-8.81-0.01-13.21,0.01c-0.01,3.96-0.01,7.91-0.01,11.88c-1.17-0.01-2.33-0.01-3.48,0
			C-2814.554,495.416-2814.584,486.766-2814.524,478.116z"/>
		<path fill="#0297D0" d="M-2531.404,478.146c1.15-0.03,2.32-0.05,3.5-0.06c0.07,8.67,0.03,17.33,0.02,26
			c-1.19-0.02-2.37-0.03-3.53-0.03c-0.01-3.96-0.01-7.92-0.02-11.87c-4.42,0-8.83,0-13.24,0.01c-0.02,4,0.07,8.01-0.2,12.01
			c-1.16-0.07-2.32-0.14-3.47-0.2c0.02-8.63-0.03-17.27,0.03-25.91c0.91,0.02,2.72,0.05,3.62,0.06c-0.01,3.56,0,7.12,0.02,10.68
			c4.41,0.01,8.82,0.01,13.24,0.01C-2531.424,485.276-2531.424,481.706-2531.404,478.146z"/>
	</g>
	<g>
		<path fill="#0198D2" d="M-2707.244,480.096c5.13-3.87,13.23-3.63,17.57,1.35c-0.97,0.72-1.94,1.43-2.9,2.16
			c-2.85-2.73-7.25-3.71-10.8-1.77c-6.6,3.38-7.14,14.18-0.82,18.12c3.88,2.52,9.24,1.51,12.14-2.03c0.96,0.8,1.93,1.6,2.91,2.42
			c-4.84,5.76-14.66,5.88-19.61,0.23C-2714.214,495.006-2713.554,484.746-2707.244,480.096z"/>
		<g>
			<path fill="#0198D2" d="M-2849.664,478.166c0.8-0.02,2.41-0.06,3.22-0.08c3.71,8.66,7.58,17.26,11.04,26.02
				c-1.36-0.03-2.72-0.04-4.07-0.05c-0.87-2.11-1.73-4.22-2.57-6.32c-4.11-0.06-8.22-0.06-12.33,0.01
				c-0.82,2.12-1.66,4.23-2.52,6.35c-1.34-0.03-2.67-0.05-4-0.06C-2857.414,495.306-2853.334,486.816-2849.664,478.166z
				 M-2848.274,482.926c-1.58,3.83-3.11,7.69-4.75,11.5c3.21,0.05,6.42,0.05,9.64,0.01
				C-2845.004,490.586-2846.434,486.666-2848.274,482.926z"/>
		</g>
		<path fill="#0198D2" d="M-2494.524,481.406c0.03-1.11,0.08-2.22,0.13-3.31c6.67,0.06,13.34,0.02,20.02,0.03
			c0,0.84,0.01,2.53,0.02,3.37c-2.77-0.01-5.53-0.02-8.28-0.06c-0.12,7.53-0.04,15.07-0.05,22.61c-0.87,0.01-2.61,0.02-3.48,0.02
			c-0.01-7.47-0.05-14.94,0.03-22.41C-2488.934,481.486-2491.734,481.406-2494.524,481.406z"/>
		<g>
			<path fill="#0198D2" d="M-2428.624,478.126c5.21,0.51,11.63-1.6,15.82,2.47c3.64,4.21,0.75,11.02-4.61,11.89
				c2.44,3.82,4.79,7.7,7.23,11.52c-1.46,0.04-2.92,0.08-4.37,0.13c-2.29-3.73-4.46-7.53-6.55-11.36c-1.33-0.05-2.66-0.08-3.98-0.1
				c0.01,3.79,0.01,7.58,0,11.38c-1.18,0-2.36,0.01-3.52,0.03C-2428.664,495.436-2428.634,486.776-2428.624,478.126z
				 M-2425.104,489.376c2.63-0.02,5.36,0.38,7.93-0.42c2.27-0.82,2.4-3.65,1.77-5.61c-2.25-2.97-6.45-1.92-9.64-2.14
				C-2425.074,483.926-2425.094,486.646-2425.104,489.376z"/>
		</g>
	</g>
	<g>
		<path fill="#0297D1" d="M-2665.424,478.136c1.15-0.02,2.3-0.03,3.45-0.03c-0.04,6.16,0.24,12.35-0.12,18.51
			c-0.58,5.43-6.55,9.14-11.75,7.95c-4.4-0.61-7.94-4.63-8.07-9.05c-0.32-5.79-0.03-11.59-0.11-17.38c0.91,0,2.74,0,3.65,0
			c0.1,5.69-0.17,11.39,0.09,17.09c0.16,3.35,3.04,6.43,6.54,6.11c3.65,0.2,6.3-3.42,6.28-6.81
			C-2665.314,489.056-2665.484,483.596-2665.424,478.136z"/>
	</g>
	<g>
		<path fill="#0298D1" d="M-2617.564,481.716c4.93-5.54,14.08-5.5,19.76-1.13c-0.76,0.95-1.51,1.91-2.26,2.89
			c-3.46-2.43-8.19-3.72-12.08-1.53c-6.25,3.26-6.9,13.17-1.25,17.31c3.47,2.91,8.36,2.25,12.38,1.06c0.05-2.48,0.06-4.96,0.07-7.44
			c-1.93,0.01-3.84,0.01-5.75,0.03c0-0.87,0.02-2.6,0.02-3.47c3.09,0.01,6.18,0,9.27-0.01c0.04,4.39,0.03,8.77,0,13.16
			c-5.64,2.47-12.79,3.38-18.12-0.28C-2622.104,497.826-2622.954,487.436-2617.564,481.716z"/>
		<g>
			<path fill="#0298D1" d="M-2573.584,478.166c4.49,0.18,9.19-0.75,13.52,0.77c5.13,2.03,5.29,10.32,0.41,12.75
				c-3.24,1.47-6.95,0.9-10.4,1.01c0,3.79-0.01,7.58-0.01,11.37c-1.17,0-2.33,0-3.47,0.01
				C-2573.594,495.436-2573.504,486.806-2573.584,478.166z M-2570.064,481.216c0,2.74,0,5.48,0,8.22c2.58-0.06,5.24,0.25,7.77-0.41
				c3.02-0.93,3.13-6.06,0.18-7.14C-2564.634,480.876-2567.424,481.316-2570.064,481.216z"/>
		</g>
	</g>
	<g>
		<g>
			<path fill="#0198D1" d="M-2749.884,478.156c4.57,0.23,9.4-0.81,13.78,0.9c4.87,2.21,4.98,10.2,0.2,12.58
				c-3.25,1.56-7,0.94-10.47,1.06c0.01,3.79,0,7.58,0,11.38c-0.88-0.01-2.63-0.03-3.51-0.04
				C-2749.884,495.406-2749.904,486.776-2749.884,478.156z M-2746.354,481.216c-0.02,2.74-0.02,5.49-0.01,8.25
				c2.53-0.06,5.11,0.2,7.6-0.38c3.07-0.76,3.42-5.68,0.68-7.07C-2740.674,480.836-2743.614,481.326-2746.354,481.216z"/>
		</g>
		<path fill="#0198D1" d="M-2456.084,478.136c6.66-0.03,13.32,0.03,19.98-0.05c0.04,1.1,0.1,2.21,0.16,3.32
			c-2.8,0-5.6,0.05-8.38,0.21c0.04,7.47,0,14.94,0.03,22.42c-0.62,0.01-1.85,0.05-2.47,0.06c-0.15-7.45,0.27-14.91-0.2-22.35
			l-0.9-0.14c-2.75-0.31-5.52-0.13-8.26-0.13C-2456.114,480.646-2456.094,478.966-2456.084,478.136z"/>
		<path fill="#0198D1" d="M-2388.944,478.146c5.6-0.06,11.2-0.01,16.81-0.03c0.04,1.09,0.09,2.2,0.15,3.31
			c-4.46,0.22-8.91-0.04-13.36,0.01c-0.04,2.56-0.05,5.13-0.05,7.7c4.1,0,8.2,0,12.3,0c0.01,1.09,0.02,2.19,0.05,3.3
			c-4.11,0-8.22,0-12.32,0c-0.03,2.77-0.03,5.54,0.01,8.32c4.62-0.02,9.24-0.01,13.87-0.01c0.01,0.83,0.03,2.48,0.04,3.31
			c-5.83,0.02-11.67,0.02-17.5,0C-2388.964,495.416-2388.964,486.776-2388.944,478.146z"/>
	</g>
	<g>
		<path fill="#0197D3" d="M-2652.094,478.146c1.52-0.02,3.05-0.03,4.58-0.03c4.86,6.85,9.1,14.14,14.25,20.78
			c0.18-6.93,0.02-13.86,0.09-20.78c0.88,0.01,2.64,0.03,3.52,0.04c0,8.61-0.01,17.23,0,25.84c-1.45,0.05-2.9,0.1-4.34,0.17
			c-5.02-6.84-9.34-14.17-14.48-20.9c-0.13,6.92-0.04,13.84-0.05,20.77c-1.2,0-2.4,0.01-3.59,0.03
			C-2652.104,495.426-2652.114,486.776-2652.094,478.146z"/>
	</g>
	<g>
		<path fill="#0199D1" d="M-2363.034,478.096c1.63,0.03,3.27,0.06,4.93,0.13c4.43,7.07,9.27,13.89,13.85,20.88
			c0.32-6.99,0.06-13.99,0.16-20.98c0.93,0,2.79,0,3.72,0c0,8.64,0,17.28,0.01,25.92c-1.56,0.01-3.11,0.01-4.64,0.03
			c-4.78-7.05-9.51-14.12-14.33-21.13c-0.09,7.04-0.04,14.07-0.04,21.11c-1.23-0.01-2.46-0.02-3.67-0.03
			C-2363.034,495.386-2363.054,486.736-2363.034,478.096z"/>
	</g>
	<g>
		<path fill="#FFFFFE" d="M-2746.354,481.216c2.74,0.11,5.68-0.38,8.27,0.8c2.74,1.39,2.39,6.31-0.68,7.07
			c-2.49,0.58-5.07,0.32-7.6,0.38C-2746.374,486.706-2746.374,483.956-2746.354,481.216z"/>
		<path fill="#FFFFFE" d="M-2570.064,481.216c2.64,0.1,5.43-0.34,7.95,0.67c2.95,1.08,2.84,6.21-0.18,7.14
			c-2.53,0.66-5.19,0.35-7.77,0.41C-2570.064,486.696-2570.064,483.956-2570.064,481.216z"/>
	</g>
	<g>
		<path fill="#1B8EBB" d="M-2447.864,481.606l0.9,0.14c0.47,7.44,0.05,14.9,0.2,22.35l-1.07-0.06
			C-2447.844,496.556-2447.794,489.086-2447.864,481.606z"/>
	</g>
	<g>
		<path fill="#FDFEFE" d="M-2848.274,482.926c1.84,3.74,3.27,7.66,4.89,11.51c-3.22,0.04-6.43,0.04-9.64-0.01
			C-2851.384,490.616-2849.854,486.756-2848.274,482.926z"/>
	</g>
	<g>
		<path fill="#FEFFFE" d="M-2508.104,482.986c1.77,3.74,3.2,7.63,4.81,11.45c-3.2,0.02-6.38,0.03-9.56,0.02
			C-2511.334,490.606-2509.764,486.776-2508.104,482.986z"/>
	</g>
	<g>
		<path fill="#0397D2" d="M-2774.254,511.916c-0.48-2.19,0.23-4.15,2.47-4.95c1.16,1.01,3.26,2.59,1.82,4.31
			C-2770.774,512.936-2772.874,512.086-2774.254,511.916z"/>
	</g>
</g>
<g>
	<path fill="#06428B" d="M-1919.63,256.19c45.96-46.01,91.91-92.03,137.97-137.94c45.97,45.99,91.98,91.94,137.93,137.95
		c-32.32,0.05-64.63,0-96.94,0.03c-13.69-13.6-27.25-27.32-41-40.85c-12.44,12.82-25.27,25.26-37.8,37.99
		c-1.25,1.13-2.31,3.06-4.27,2.84C-1855.7,256.21-1887.67,256.27-1919.63,256.19z"/>
	<g>
		<path fill="#06428B" d="M-959.19,254.16c1.54,0.05,3.09,0.11,4.66,0.18c32.61,66.51,65.29,132.99,98,199.46
			c-0.7,1.19-1.38,2.39-2.04,3.59c-13.69,0.22-27.37,0.01-41.06,0.11c-1.97-1.75-3.2-4.09-4.22-6.47
			c-17.63-36.02-35.52-71.9-53.08-107.96c-17.86,36.95-36.24,73.64-54.22,110.52c-0.82,1.99-2.39,4.05-4.78,3.87
			c-13.14,0.05-26.27,0.04-39.41-0.01c-0.64-1.51-2.57-3.03-1.59-4.77C-1024.4,386.49-991.63,320.4-959.19,254.16z"/>
		<path fill="#06428B" d="M-1421.87,257.09c1.2-0.94,2.14-2.75,3.96-2.36c12.72-0.04,25.44,0.03,38.17-0.04
			c1.76-0.31,2.81,1.43,4.04,2.35c-0.08,25.28-0.06,50.56-0.01,75.83c24.15,0.06,48.3,0.17,72.45-0.06
			c-0.09-25.22,0-50.45-0.05-75.67c0.8-0.81,1.6-1.62,2.42-2.43c13.59,0.02,27.18,0.01,40.78,0c0.84,0.81,1.7,1.61,2.57,2.42
			c0.03,65.97,0.04,131.95,0,197.92c-0.86,0.82-1.69,1.64-2.52,2.47c-13.68-0.13-27.36,0.09-41.04-0.12
			c-0.73-0.73-1.46-1.45-2.17-2.17c-0.07-25.51,0.02-51.02-0.05-76.53c-24.12,0.04-48.24,0.13-72.36-0.05
			c-0.15,24.8,0,49.61-0.07,74.41c0.3,1.96-1.33,3.19-2.56,4.39c-13.65,0.03-27.31,0.07-40.96-0.01c-0.82-0.78-1.62-1.55-2.42-2.32
			C-1422.06,389.12-1421.7,323.1-1421.87,257.09z"/>
		<g>
			<path fill="#06428B" d="M-1155.24,255.76c18.89-2.77,38.58-0.11,56.01,7.69c27.9,12.36,49.57,37.93,56.95,67.56
				c7.91,30.75,0.49,65.08-19.98,89.45c-19.77,24.32-51.3,38.44-82.62,36.86c-20.93-0.81-41.51-8.38-57.94-21.36
				c-14.64-11.35-26.04-26.81-32.58-44.14c-8.15-21.6-8.6-46-1.28-67.9C-1225.12,288.34-1192.36,260.76-1155.24,255.76z
				 M-1149.59,301.31c-17.34,2.75-32.91,14.31-40.77,29.98c-5.7,11.16-7.4,24.34-4.61,36.57c3.04,14.3,12.19,27.1,24.52,34.91
				c14.24,9.32,32.99,11.35,48.92,5.35c11.57-4.1,21.51-12.37,28.01-22.75c8.65-13.61,10.92-31.13,5.74-46.44
				c-3.73-11.56-11.45-21.72-21.44-28.59C-1120.81,302.21-1135.64,298.92-1149.59,301.31z"/>
		</g>
		<path fill="#06428B" d="M-1062.52,254.62c6.05,0.14,12.12,0.15,18.18,0.01c2.68,1.8,3.71,4.96,5.15,7.7
			c6.3,13.4,13.09,26.57,19.55,39.9c-0.58,1.18-1.15,2.35-1.7,3.54c-5.87,0.45-11.77,0.28-17.64,0.17c-3.1-0.07-3.79-3.6-5.1-5.74
			c-6.59-13.64-13.41-27.17-19.99-40.8C-1065.12,257.64-1063.13,256.15-1062.52,254.62z"/>
		<g>
			<path fill="#06428B" d="M-802.85,257.22c0.9-0.85,1.81-1.71,2.74-2.56c29.11,0.13,58.23,0.02,87.34,0.06
				c16.97,0.36,33.76,7.32,45.77,19.36c13.32,12.82,20.87,31.4,20.29,49.87c-0.12,26.08-16.97,51.09-41.01,61.14
				c-9.13,3.98-19.16,5.78-29.1,5.4c-13.48,0.01-26.96,0.02-40.44-0.02c-0.12,21.53,0.02,43.06-0.06,64.59
				c-0.82,0.76-1.62,1.52-2.4,2.29c-13.52,0.28-27.05,0.1-40.58,0.09c-1.2-1.25-2.96-2.36-2.55-4.36
				C-802.86,387.79-802.84,322.51-802.85,257.22z M-757.27,345.22c14.49-0.06,28.98,0.03,43.46-0.05
				c11.21-0.18,21.05-9.91,21.51-21.08c1.06-12.21-9.35-23.77-21.54-24.29c-14.46-0.22-28.94,0.09-43.4-0.15
				C-757.35,314.84-757.31,330.03-757.27,345.22z"/>
		</g>
		<path fill="#06428B" d="M-635.66,254.93c12.95-0.01,25.91-0.02,38.87-0.02c1.98-0.4,3.24,1.21,4.57,2.36
			c-0.16,25.32-0.03,50.65-0.05,75.98c24.11-0.05,48.23-0.02,72.35-0.02c0.16-25.35,0.08-50.71,0.04-76.06
			c1.18-0.97,2.26-2.42,4.02-2.23c13.25-0.05,26.51-0.06,39.76,0.05c0.66,0.75,1.33,1.5,2.03,2.25
			c0.09,65.57,0.02,131.14,0.04,196.72c0.07,1.53-1.27,2.54-1.99,3.73c-13.28,0.05-26.57,0.04-39.84,0.03
			c-2,0.14-3.98-1.59-3.95-3.59c-0.11-24.98,0.08-49.95-0.09-74.93c-24.14,0.06-48.27-0.03-72.41,0.05
			c0.02,25.32,0.05,50.64-0.01,75.95c-0.77,0.79-1.51,1.59-2.24,2.39c-13.64,0.33-27.29,0.01-40.94,0.16
			c-0.95-0.81-1.86-1.62-2.77-2.43c-0.07-66,0-132-0.03-197.99C-637.44,256.53-636.56,255.73-635.66,254.93z"/>
		<path fill="#06428B" d="M-399.65,257.03c0.8-1.85,3.01-2.15,4.82-2.12c5.07-0.04,10.14,0.07,15.23-0.02
			c0.73,1.43,3,2.71,2.06,4.51c-7.33,15.32-15.01,30.49-22.38,45.79c-6.39,2.2-13.39,0.5-20.02,1.04c-0.75-1.1-1.49-2.21-2.21-3.3
			c3.71-8.57,8.3-16.71,12.19-25.2C-406.36,270.92-403.35,263.8-399.65,257.03z"/>
		<path fill="#06428B" d="M-358.15,254.75c1.56-0.05,3.14-0.1,4.74-0.15c17.48,36.08,35.37,71.97,52.95,108
			c15.08,30.35,29.8,60.87,44.9,91.21c-0.72,1.19-1.4,2.38-2.07,3.58c-13.08,0.17-26.16,0.1-39.23,0.05
			c-3.01,0.32-4.11-2.79-5.21-4.94c-10.89-22.16-21.91-44.26-32.68-66.47c-7.21-14-13.68-28.37-21.13-42.23
			c-18.19,36.85-36.21,73.77-54.49,110.57c-0.68,1.87-2.29,3.31-4.36,3.08c-13.11,0.03-26.22,0.12-39.32-0.07
			c-0.69-1.19-1.37-2.37-2.02-3.55C-423.57,387.4-390.59,321.21-358.15,254.75z"/>
		<path fill="#06428B" d="M-291.23,257.84c-0.01-2.17,2.46-3.28,4.36-3.13c52.03,0.02,104.06,0.01,156.08,0
			c1.85-0.36,3.14,1.1,4.54,2.05c-0.04,13.43,0.02,26.86-0.02,40.29c0.15,1.46-1.19,2.36-1.88,3.43c-19.32-0.02-38.63,0-57.94,0
			c0.07,51.61,0.16,103.22-0.05,154.83c-0.75,0.71-1.47,1.41-2.16,2.13c-13.16,0.05-26.32,0.1-39.47-0.01
			c-2.38,0.22-4.11-2.16-3.78-4.38c0.06-50.85-0.05-101.7,0.06-152.55c-19.2-0.06-38.4-0.02-57.6-0.02
			c-0.75-0.82-1.48-1.63-2.19-2.44C-291.26,284.64-291.38,271.23-291.23,257.84z"/>
	</g>
	<path fill="#06428B" d="M-2073.75,410.2c46.06-45.89,91.93-91.96,137.97-137.87c19.38,18.81,38.25,38.14,57.42,57.16
		c26.84,26.83,53.64,53.69,80.51,80.48c-3.96,0.49-7.96,0.18-11.94,0.24c-28.28-0.01-56.57,0.04-84.86-0.02
		c-13.72-13.54-27.15-27.37-41.01-40.78c-13.53,13.7-27.15,27.31-40.83,40.86C-2008.91,410.13-2041.33,410.28-2073.75,410.2z"/>
	<path fill="#06428B" d="M-1765.63,410.16c46.01-45.9,91.88-91.95,137.92-137.82c46.12,45.8,91.95,91.91,137.97,137.82
		c-32.33,0.12-64.65,0.04-96.97,0.04c-13.68-13.62-27.32-27.27-40.95-40.94c-13.62,13.66-27.29,27.26-40.9,40.94
		C-1700.92,410.21-1733.27,410.28-1765.63,410.16z"/>
	<path fill="#0198D2" d="M-1918.73,269.43c31.33,0.07,62.65-0.01,93.97,0.04c1.18,0.09,2.61-0.15,3.4,0.97
		c11.03,11.15,22.14,22.23,33.27,33.29c-2.23,0.13-4.46,0.33-6.69,0.39c-30.09,0.1-60.19-0.1-90.28,0.1
		c-11-11.1-22.1-22.1-33.07-33.23C-1918.28,270.6-1918.58,269.82-1918.73,269.43z"/>
	<path fill="#0198D2" d="M-1740.81,269.54c32.38-0.1,64.76-0.19,97.14,0.03c-11.12,11.4-22.7,22.35-33.62,33.94
		c-2.16,0.34-4.34,0.65-6.53,0.65c-24.33-0.06-48.66,0.03-72.98-0.06c-6.14-0.28-12.34,0.7-18.4-0.59c1.12-0.85,2.28-1.67,3.27-2.67
		C-1761.69,290.27-1751.08,280.07-1740.81,269.54z"/>
	<path fill="#0198D2" d="M-2072.97,423.59c32.19-0.31,64.39-0.11,96.59-0.11c11.37,11.31,22.76,22.62,34.01,34.06
		c-28.13,0.27-56.28,0.06-84.41,0.11c-4.22-0.14-8.47,0.29-12.67-0.24c-8.3-7.57-15.91-15.89-23.99-23.72
		C-2066.7,430.42-2070.22,427.34-2072.97,423.59z"/>
	<path fill="#0198D2" d="M-1894.37,423.5c31.93-0.09,63.86-0.12,95.79,0.01c-0.67,1.18-1.35,2.37-2.31,3.34
		c-10.18,10.24-20.48,20.36-30.6,30.66c-32.38,0.31-64.77,0.14-97.15,0.08C-1917.3,446.15-1906.1,434.55-1894.37,423.5z"/>
	<path fill="#0198D2" d="M-1765.05,423.59c32.23-0.31,64.46-0.15,96.69-0.07c11.37,11.35,22.72,22.72,34.09,34.08
		c-32.43,0.13-64.86,0.05-97.29,0.04c-7.7-7.6-15.3-15.31-22.97-22.95C-1758.11,431.07-1761.96,427.66-1765.05,423.59z"/>
	<path fill="#0198D2" d="M-1620.61,457.58c11-11.56,22.53-22.6,33.69-34c25.03-0.31,50.08-0.06,75.12-0.14
		c7.36,0.05,14.72-0.16,22.08,0.21c-11.51,11.26-22.63,22.93-34.3,34.03C-1556.22,457.59-1588.42,457.78-1620.61,457.58z"/>
</g>
<g>
	<path fill="#06428B" d="M186.105,256.22c45.96-46.01,91.91-92.03,137.97-137.94c45.97,45.99,91.98,91.94,137.93,137.95
		c-32.32,0.05-64.63,0-96.94,0.03c-13.69-13.6-27.25-27.32-41-40.85c-12.44,12.82-25.27,25.26-37.8,37.99
		c-1.25,1.13-2.31,3.06-4.27,2.84C250.035,256.24,218.065,256.3,186.105,256.22z"/>
	<path fill="#06428B" d="M31.985,410.23c46.06-45.89,91.93-91.96,137.97-137.87c19.38,18.81,38.25,38.14,57.42,57.16
		c26.84,26.83,53.64,53.69,80.51,80.48c-3.96,0.49-7.96,0.18-11.94,0.24c-28.28-0.01-56.57,0.04-84.86-0.02
		c-13.72-13.54-27.15-27.37-41.01-40.78c-13.53,13.7-27.15,27.31-40.83,40.86C96.825,410.16,64.405,410.31,31.985,410.23z"/>
	<path fill="#06428B" d="M340.105,410.19c46.01-45.9,91.88-91.95,137.92-137.82c46.12,45.8,91.95,91.91,137.97,137.82
		c-32.33,0.12-64.65,0.04-96.97,0.04c-13.68-13.62-27.32-27.27-40.95-40.94c-13.62,13.66-27.29,27.26-40.9,40.94
		C404.815,410.24,372.465,410.31,340.105,410.19z"/>
	<path fill="#0198D2" d="M187.005,269.46c31.33,0.07,62.65-0.01,93.97,0.04c1.18,0.09,2.61-0.15,3.4,0.97
		c11.03,11.15,22.14,22.23,33.27,33.29c-2.23,0.13-4.46,0.33-6.69,0.39c-30.09,0.1-60.19-0.1-90.28,0.1
		c-11-11.1-22.1-22.1-33.07-33.23C187.455,270.63,187.155,269.85,187.005,269.46z"/>
	<path fill="#0198D2" d="M364.925,269.57c32.38-0.1,64.76-0.19,97.14,0.03c-11.12,11.4-22.7,22.35-33.62,33.94
		c-2.16,0.34-4.34,0.65-6.53,0.65c-24.33-0.06-48.66,0.03-72.98-0.06c-6.14-0.28-12.34,0.7-18.4-0.59c1.12-0.85,2.28-1.67,3.27-2.67
		C344.045,290.3,354.655,280.1,364.925,269.57z"/>
	<path fill="#0198D2" d="M32.765,423.62c32.19-0.31,64.39-0.11,96.59-0.11c11.37,11.31,22.76,22.62,34.01,34.06
		c-28.13,0.27-56.28,0.06-84.41,0.11c-4.22-0.14-8.47,0.29-12.67-0.24c-8.3-7.57-15.91-15.89-23.99-23.72
		C39.035,430.45,35.515,427.37,32.765,423.62z"/>
	<path fill="#0198D2" d="M211.365,423.53c31.93-0.09,63.86-0.12,95.79,0.01c-0.67,1.18-1.35,2.37-2.31,3.34
		c-10.18,10.24-20.48,20.36-30.6,30.66c-32.38,0.31-64.77,0.14-97.15,0.08C188.435,446.18,199.635,434.58,211.365,423.53z"/>
	<path fill="#0198D2" d="M340.685,423.62c32.23-0.31,64.46-0.15,96.69-0.07c11.37,11.35,22.72,22.72,34.09,34.08
		c-32.43,0.13-64.86,0.05-97.29,0.04c-7.7-7.6-15.3-15.31-22.97-22.95C347.625,431.1,343.775,427.69,340.685,423.62z"/>
	<path fill="#0198D2" d="M485.125,457.61c11-11.56,22.53-22.6,33.69-34c25.03-0.31,50.08-0.06,75.12-0.14
		c7.36,0.05,14.72-0.16,22.08,0.21c-11.51,11.26-22.63,22.93-34.3,34.03C549.515,457.62,517.315,457.81,485.125,457.61z"/>
</g>
</svg>
